<svg width="18" height="16" viewBox="0 0 18 16" fill="none" xmlns="http://www.w3.org/2000/svg">
<path d="M15.8566 2.1053L15.856 2.10472C15.4209 1.68153 14.9076 1.34493 14.3439 1.1135L14.343 1.1131C13.7581 0.872033 13.1306 0.748565 12.4969 0.750013L12.4952 0.750017C11.604 0.750015 10.7362 0.992105 9.98322 1.44791L9.9832 1.44792C9.80305 1.55696 9.63249 1.67636 9.47126 1.80612L9.00103 2.18456L8.5308 1.80612C8.36957 1.67636 8.19902 1.55696 8.01886 1.44792L8.01884 1.44791C7.26583 0.992105 6.39808 0.750015 5.50688 0.750015C4.86384 0.750015 4.24431 0.871908 3.6591 1.11311L3.65829 1.11344C3.09236 1.34592 2.58343 1.67965 2.1458 2.10495L2.14477 2.10594C1.71104 2.52584 1.36488 3.02579 1.12562 3.57731L15.8566 2.1053ZM15.8566 2.1053C16.2902 2.52605 16.6366 3.02632 16.8767 3.57795C17.1255 4.15173 17.2518 4.75837 17.25 5.3834V5.38554C17.25 5.97047 17.1296 6.59649 16.8772 7.25142L16.8765 7.25312M15.8566 2.1053L16.8765 7.25312M4.72375 11.9836L4.72384 11.9837C5.66457 12.8457 6.60368 13.5769 7.31896 14.0994C7.67603 14.3602 7.97583 14.568 8.19023 14.7128C8.29741 14.7852 8.38303 14.8417 8.44355 14.8812C8.50476 14.9211 8.53548 14.9404 8.53751 14.9417L8.53762 14.9418L8.54949 14.949L8.54943 14.9491L8.99999 15.2359L9.45055 14.9491L9.4507 14.949C9.51716 14.9068 11.3877 13.7122 13.2762 11.9836H4.72375ZM4.72375 11.9836C3.58789 10.9431 2.69089 9.93255 2.04865 8.98251L4.72375 11.9836ZM16.8765 7.25312C16.6675 7.79942 16.3572 8.38125 15.9514 8.98243L16.8765 7.25312ZM0.75 5.38554C0.75 4.75885 0.876686 4.15129 1.1256 3.57736L1.12274 7.25132C0.870342 6.59643 0.75 5.97044 0.75 5.38554ZM2.04859 8.98243C1.64372 8.3827 1.33468 7.8002 1.12278 7.25142L2.04859 8.98243ZM15.9513 8.98251C15.3091 9.93249 14.4122 10.943 13.2764 11.9834L15.9513 8.98251Z" stroke="#999999" stroke-width="1.5"/>
</svg>
