<svg width="24" height="22" viewBox="0 0 24 22" fill="none" xmlns="http://www.w3.org/2000/svg">
<path d="M21.1312 2.86157L21.1304 2.86078C20.549 2.27756 19.8646 1.81526 19.1151 1.49795L19.1138 1.49739C18.3363 1.16689 17.5031 0.998038 16.6626 1.00002L16.6602 1.00002C15.4783 1.00002 14.3254 1.331 13.3227 1.95695L13.3226 1.95697C13.0826 2.10677 12.8552 2.27093 12.64 2.44952L12.0014 2.97958L11.3627 2.44952C11.1475 2.27093 10.9201 2.10677 10.6801 1.95697L10.6801 1.95695C9.67733 1.331 8.52447 1.00002 7.34251 1.00002C6.4894 1.00002 5.66688 1.16673 4.88891 1.4974L4.88781 1.49786C4.13538 1.81662 3.45684 2.27498 2.87201 2.86108L2.87067 2.86243C2.29096 3.44119 1.82668 4.13194 1.5052 4.89614L21.1312 2.86157ZM21.1312 2.86157C21.7105 3.44128 22.1749 4.13215 22.4976 4.89614L21.1312 2.86157ZM6.30958 16.5109L6.30968 16.511C7.56437 17.6966 8.81673 18.7023 9.77044 19.4207C10.2465 19.7793 10.6463 20.065 10.9321 20.2641C11.075 20.3637 11.1892 20.4414 11.2699 20.4957C11.3505 20.5499 11.3914 20.5764 11.3949 20.5787L11.3952 20.5789L11.4032 20.5839L11.411 20.589L12 20.9755L12.589 20.589L12.5892 20.5889C12.6775 20.531 15.172 18.8881 17.6907 16.5107L6.30958 16.5109ZM6.30958 16.5109C4.7949 15.0801 3.59763 13.6894 2.73964 12.3806L6.30958 16.5109ZM22.4985 9.99372L22.4993 9.99148C22.8378 9.08592 23 8.21802 23 7.40512V7.40235C23.0024 6.53422 22.8322 5.69232 22.4981 4.89732L22.4985 9.99372ZM22.4985 9.99372C22.2182 10.7491 21.8028 11.5519 21.2606 12.3802L22.4985 9.99372ZM1 7.40512C1 6.53471 1.1707 5.69152 1.50516 4.89621L1.50048 9.99099C1.16215 9.08561 1 8.21787 1 7.40512ZM2.73954 12.3805C2.19849 11.5541 1.78474 10.7502 1.50067 9.99148L2.73954 12.3805Z" stroke="white" stroke-opacity="0.5" stroke-width="2"/>
</svg>
