<svg width="98" height="60" viewBox="0 0 98 60" fill="none" xmlns="http://www.w3.org/2000/svg">
<path fill-rule="evenodd" clip-rule="evenodd" d="M0 58.6499V36.5956H7.12726V38.1998H7.11841V58.6499H0ZM7.11841 23.5838H0V1.3501H21.5135C32.2306 1.3501 39.8236 8.77566 39.8236 19.6559V19.7352C39.8236 21.0704 39.7093 22.3559 39.4888 23.5838H32.0968C32.3944 22.4321 32.547 21.1729 32.547 19.8147V19.7352C32.547 12.1906 27.8409 7.70349 19.6943 7.70349H7.11841V23.5838ZM74.1361 60C60.559 60 51.441 51.167 49.3857 36.5956H56.7916C58.6 47.0799 64.9243 53.4083 74.1361 53.4083C82.0849 53.4083 88.1358 49.3183 89.9152 42.7266L89.9946 42.6473H97.1915V42.7266C95.2939 53.2097 86.277 60 74.1361 60ZM49.3629 23.5838H56.7672C58.5418 13.0055 64.8764 6.59166 74.0965 6.59166C81.9667 6.59166 88.0564 11.2376 89.9549 18.5837L89.9946 18.6631H97.1526L97.1915 18.5837C95.4915 7.58435 86.1191 0 74.0965 0C60.4722 0 51.3685 8.89456 49.3629 23.5838Z" fill="#FFE500"/>
<rect y="27.65" width="98" height="4.87941" fill="#FFE500"/>
</svg>
