<svg width="10" height="16" viewBox="0 0 10 16" fill="none" xmlns="http://www.w3.org/2000/svg">
<path fill-rule="evenodd" clip-rule="evenodd" d="M1.722 7.90646C4.022 5.59946 6.27 3.34746 8.466 1.15246C8.58095 1.03162 8.64505 0.87123 8.64505 0.704457C8.64505 0.537684 8.58095 0.377291 8.466 0.256457C8.155 -0.0895429 7.663 -0.0595428 7.439 0.176457C5.163 2.45846 2.782 4.84346 0.296 7.33246C0.099 7.49446 0 7.68646 0 7.90646C0 8.12746 0.099 8.32446 0.296 8.49846L7.779 15.8045C7.92254 15.9365 8.11193 16.0073 8.30689 16.0019C8.50185 15.9965 8.68701 15.9153 8.823 15.7755C9.181 15.4165 9.043 15.0625 8.881 14.8945C6.49091 12.5686 4.10525 10.2393 1.722 7.90646Z" fill="#E0E0E0"/>
</svg>
